<svg width="36" height="36" viewBox="0 0 36 36" fill="none" xmlns="http://www.w3.org/2000/svg">
<path d="M18 0C8.05781 0 0 8.05781 0 18C0 27.9422 8.05781 36 18 36C27.9422 36 36 27.9422 36 18C36 8.05781 27.9422 0 18 0ZM12.7688 27.2109H8.38828V14.0203H12.7688V27.2109ZM10.575 12.2203H10.5469C9.07734 12.2203 8.12109 11.2078 8.12109 9.94219C8.12109 8.64844 9.09844 7.66406 10.6031 7.66406C12.1078 7.66406 13.0289 8.64844 13.057 9.94219C13.057 11.2078 12.1078 12.2203 10.575 12.2203ZM28.575 27.2109H24.1945V20.1586C24.1945 18.3867 23.5617 17.1773 21.9727 17.1773C20.7633 17.1773 20.0391 17.993 19.7227 18.7805C19.6102 19.0617 19.575 19.4555 19.575 19.8492V27.2109H15.1945C15.1945 27.2109 15.2508 15.2578 15.1945 14.0203H19.575V15.8906C20.1586 14.9906 21.1992 13.7109 23.5266 13.7109C26.4094 13.7109 28.575 15.5953 28.575 19.6453V27.2109Z" fill="white"/>
</svg>
