<svg width="24" height="24" viewBox="0 0 24 24" fill="none" xmlns="http://www.w3.org/2000/svg">
<path d="M11.9787 1.73653C8.20853 1.73653 5.152 4.79306 5.152 8.56319C5.152 12.3333 8.20853 15.3899 11.9787 15.3899H15.392C13.5067 15.3899 11.9787 16.9179 11.9787 18.8032C11.9787 20.6885 13.5067 22.2165 15.392 22.2165C17.2773 22.2165 18.8053 20.6885 18.8053 18.8032V16.7867V15.3899V8.56319C18.8053 4.79306 15.7488 1.73653 11.9787 1.73653ZM16.1733 13.8672C15.6021 13.8672 15.1397 13.4043 15.1397 12.8336C15.1397 12.2624 15.6027 11.8 16.1733 11.8C16.7445 11.8 17.2069 12.2629 17.2069 12.8336C17.2075 13.4043 16.7445 13.8672 16.1733 13.8672Z" fill="#50A2C8"/>
</svg>
