<svg width="134" height="44" viewBox="0 0 134 44" fill="none" xmlns="http://www.w3.org/2000/svg">
<path d="M9.73967 30.9158C8.6278 30.9158 7.5412 30.7389 6.47987 30.3852C5.41854 30.0314 4.50883 29.526 3.75073 28.869L5.01422 26.7463C5.82285 27.3191 6.61043 27.7529 7.37695 28.0477C8.14346 28.3425 8.90577 28.4899 9.66386 28.4899C10.3377 28.4899 10.8684 28.3636 11.2559 28.1109C11.6433 27.8582 11.8371 27.496 11.8371 27.0243C11.8371 26.5526 11.6096 26.2072 11.1548 25.9882C10.6999 25.7692 9.95868 25.5165 8.93104 25.2301C8.07187 24.9943 7.33904 24.7668 6.73257 24.5478C6.12609 24.3288 5.63754 24.0804 5.26692 23.8024C4.89629 23.5244 4.62675 23.2043 4.45829 22.8421C4.28982 22.4799 4.20559 22.0461 4.20559 21.5407C4.20559 20.8669 4.33615 20.2604 4.59727 19.7213C4.85839 19.1822 5.2248 18.7231 5.69651 18.3441C6.16821 17.9651 6.71993 17.6745 7.35168 17.4723C7.98342 17.2701 8.66992 17.1691 9.41116 17.1691C10.4051 17.1691 11.3359 17.3123 12.2035 17.5986C13.0711 17.885 13.8671 18.3483 14.5915 18.9885L13.2269 21.0353C12.553 20.5299 11.9002 20.1593 11.2685 19.9235C10.6367 19.6876 10.0092 19.5697 9.38589 19.5697C8.81311 19.5697 8.33299 19.6876 7.94552 19.9235C7.55805 20.1593 7.36431 20.5384 7.36431 21.0606C7.36431 21.2965 7.41064 21.4902 7.5033 21.6418C7.59595 21.7934 7.74336 21.9282 7.94552 22.0461C8.14768 22.1641 8.41301 22.2778 8.74152 22.3873C9.07002 22.4968 9.47855 22.6105 9.9671 22.7284C10.8768 22.9643 11.656 23.2001 12.3046 23.436C12.9531 23.6718 13.4838 23.9414 13.8965 24.2446C14.3093 24.5478 14.6125 24.8974 14.8063 25.2933C15 25.6892 15.0969 26.1651 15.0969 26.721C15.0969 28.0182 14.6167 29.0417 13.6565 29.7913C12.6962 30.541 11.3906 30.9158 9.73967 30.9158Z" fill="#50A2C8"/>
<path d="M20.9089 30.9158C20.2687 30.9158 19.6706 30.8105 19.1147 30.5999C18.5588 30.3893 18.0786 30.0945 17.6743 29.7154C17.27 29.3364 16.9541 28.8942 16.7267 28.3888C16.4993 27.8834 16.3856 27.3275 16.3856 26.721C16.3856 26.0977 16.5245 25.5207 16.8025 24.99C17.0805 24.4593 17.4679 24.0087 17.9649 23.6381C18.4619 23.2674 19.0557 22.9768 19.7464 22.7663C20.4371 22.5557 21.1952 22.4504 22.0207 22.4504C22.6103 22.4504 23.1873 22.5009 23.7517 22.602C24.3161 22.7031 24.8172 22.8463 25.2552 23.0316V22.2735C25.2552 21.3975 25.0068 20.7236 24.5098 20.2519C24.0128 19.7802 23.2758 19.5444 22.2987 19.5444C21.5911 19.5444 20.9004 19.6707 20.2266 19.9234C19.5527 20.1761 18.862 20.5467 18.1544 21.0353L17.1184 18.8873C18.8199 17.7586 20.6562 17.1943 22.6272 17.1943C24.5309 17.1943 26.0091 17.6618 27.062 18.5967C28.1149 19.5317 28.6414 20.8837 28.6414 22.6525V26.7715C28.6414 27.1253 28.7046 27.378 28.8309 27.5296C28.9573 27.6812 29.1636 27.7655 29.45 27.7823V30.6631C28.8773 30.781 28.3803 30.84 27.9591 30.84C27.3189 30.84 26.8262 30.6968 26.4808 30.4104C26.1355 30.124 25.9207 29.7449 25.8365 29.2732L25.7606 28.5404C25.171 29.3153 24.455 29.905 23.6127 30.3093C22.7704 30.7136 21.8691 30.9158 20.9089 30.9158ZM21.8691 28.4393C22.4419 28.4393 22.9852 28.3382 23.499 28.1361C24.0128 27.9339 24.4129 27.6644 24.6993 27.3275C25.0699 27.0411 25.2552 26.721 25.2552 26.3672V24.851C24.8509 24.6994 24.4129 24.5773 23.9412 24.4846C23.4695 24.3919 23.0147 24.3456 22.5767 24.3456C21.7006 24.3456 20.9847 24.5436 20.4287 24.9395C19.8728 25.3353 19.5948 25.8365 19.5948 26.443C19.5948 27.0158 19.8138 27.4917 20.2518 27.8708C20.6898 28.2498 21.2289 28.4393 21.8691 28.4393Z" fill="#50A2C8"/>
<path d="M31.7496 33.241C32.036 33.3252 32.314 33.3884 32.5836 33.4305C32.8531 33.4726 33.0805 33.4937 33.2658 33.4937C33.4848 33.4937 33.687 33.4516 33.8723 33.3674C34.0576 33.2831 34.2261 33.1357 34.3777 32.9251C34.5293 32.7146 34.6809 32.4239 34.8326 32.0533C34.9842 31.6827 35.1442 31.2194 35.3127 30.6635L30.0818 17.4221H33.5691L37.1574 27.7322L40.3414 17.4221H43.5254L37.966 33.2915C37.6459 34.2181 37.0984 34.9762 36.3235 35.5658C35.5485 36.1555 34.5883 36.4503 33.4427 36.4503C33.1732 36.4503 32.8994 36.4292 32.6215 36.3871C32.3435 36.345 32.0529 36.2734 31.7496 36.1723V33.241V33.241Z" fill="#50A2C8"/>
<path d="M57.6763 30.6631H54.2902V23.2337C54.2902 22.1724 54.1049 21.3975 53.7342 20.9089C53.3636 20.4204 52.8498 20.1761 52.1928 20.1761C51.8558 20.1761 51.5105 20.2435 51.1567 20.3783C50.8029 20.513 50.4702 20.7026 50.1586 20.9468C49.8469 21.1911 49.5647 21.4817 49.312 21.8186C49.0593 22.1556 48.874 22.5262 48.7561 22.9305V30.6631H45.3699V17.4217H48.4276V19.8729C48.9161 19.0305 49.6237 18.3735 50.5502 17.9018C51.4768 17.4301 52.5213 17.1943 53.6837 17.1943C54.5092 17.1943 55.183 17.3459 55.7053 17.6491C56.2275 17.9524 56.6318 18.3483 56.9182 18.8368C57.2046 19.3254 57.4026 19.8813 57.5121 20.5046C57.6216 21.1279 57.6763 21.7597 57.6763 22.3998V30.6631Z" fill="#50A2C8"/>
<path d="M60.6307 15.5777V12.2169H64.0169V15.5777H60.6307ZM60.6307 30.6638V17.4224H64.0169V30.6638H60.6307Z" fill="#50A2C8"/>
<path d="M79.3812 30.6631H75.9951V23.2337C75.9951 22.1724 75.8098 21.3975 75.4391 20.9089C75.0685 20.4204 74.5547 20.1761 73.8977 20.1761C73.5607 20.1761 73.2154 20.2435 72.8616 20.3783C72.5078 20.513 72.1751 20.7026 71.8635 20.9468C71.5518 21.1911 71.2696 21.4817 71.0169 21.8186C70.7642 22.1556 70.5789 22.5262 70.461 22.9305V30.6631H67.0748V17.4217H70.1325V19.8729C70.621 19.0305 71.3286 18.3735 72.2551 17.9018C73.1817 17.4301 74.2262 17.1943 75.3886 17.1943C76.2141 17.1943 76.8879 17.3459 77.4102 17.6491C77.9324 17.9524 78.3367 18.3483 78.6231 18.8368C78.9095 19.3254 79.1075 19.8813 79.217 20.5046C79.3265 21.1279 79.3812 21.7597 79.3812 22.3998V30.6631Z" fill="#50A2C8"/>
<path d="M88.4781 30.9158C87.4168 30.9158 86.4565 30.7347 85.5974 30.3725C84.7382 30.0103 84.0054 29.5175 83.3989 28.8942C82.7924 28.2709 82.3249 27.5465 81.9964 26.721C81.6679 25.8955 81.5037 25.0279 81.5037 24.1182C81.5037 23.1748 81.6637 22.2861 81.9838 21.4522C82.3039 20.6183 82.7672 19.8855 83.3736 19.2538C83.9801 18.622 84.7171 18.1208 85.5847 17.7502C86.4523 17.3796 87.4252 17.1943 88.5034 17.1943C89.5816 17.1943 90.546 17.3796 91.3968 17.7502C92.2475 18.1208 92.9719 18.6178 93.57 19.2411C94.168 19.8644 94.6229 20.5888 94.9346 21.4143C95.2462 22.2398 95.402 23.099 95.402 23.9918C95.402 24.2108 95.3978 24.4214 95.3894 24.6236C95.381 24.8257 95.3599 24.9942 95.3262 25.129H85.092C85.1425 25.6512 85.2689 26.1145 85.471 26.5188C85.6732 26.9231 85.9343 27.2685 86.2544 27.5549C86.5745 27.8413 86.9367 28.0603 87.341 28.2119C87.7453 28.3635 88.1665 28.4393 88.6045 28.4393C89.2783 28.4393 89.9143 28.2751 90.5123 27.9466C91.1104 27.6181 91.5189 27.1843 91.7379 26.6452L94.644 27.4538C94.1554 28.4646 93.3763 29.2943 92.3065 29.9429C91.2367 30.5915 89.9606 30.9158 88.4781 30.9158ZM91.9148 22.9305C91.8306 21.9366 91.4642 21.1406 90.8156 20.5425C90.167 19.9445 89.3794 19.6454 88.4529 19.6454C87.998 19.6454 87.5726 19.7255 87.1767 19.8855C86.7808 20.0455 86.4313 20.2688 86.128 20.5551C85.8248 20.8415 85.5763 21.1869 85.3826 21.5912C85.1888 21.9955 85.0751 22.442 85.0414 22.9305H91.9148V22.9305Z" fill="#50A2C8"/>
<path d="M130.75 14.6911C130.75 7.11862 124.612 0.980164 117.039 0.980164C113.253 0.980164 109.827 2.5153 107.344 4.99595C104.863 7.47871 103.328 10.9049 103.328 14.6911C103.328 22.2636 109.467 28.4021 117.039 28.4021H123.896C120.109 28.4021 117.041 31.4703 117.041 35.2565C117.041 39.0428 120.109 42.1109 123.896 42.1109C127.682 42.1109 130.75 39.0428 130.75 35.2565V28.4021V14.6911ZM125.466 21.1897C126.614 21.1897 127.543 22.1204 127.543 23.266C127.543 24.4116 126.614 25.3423 125.466 25.3423C124.319 25.3423 123.39 24.4116 123.39 23.266C123.39 22.1204 124.319 21.1897 125.466 21.1897Z" fill="#50A2C8"/>
</svg>
