<svg width="32" height="32" viewBox="0 0 32 32" fill="none" xmlns="http://www.w3.org/2000/svg">
<path d="M25.9432 10.6855C25.9432 5.1782 21.4789 0.713867 15.9716 0.713867C13.218 0.713867 10.7262 1.83033 8.92058 3.63444C7.11647 5.44008 6 7.93184 6 10.6855C6 16.1928 10.4643 20.6571 15.9716 20.6571H20.9582C18.2045 20.6571 15.9731 22.8885 15.9731 25.6421C15.9731 28.3958 18.2045 30.6272 20.9582 30.6272C23.7118 30.6272 25.9432 28.3958 25.9432 25.6421V20.6571V10.6855ZM22.1007 15.4117C22.9353 15.4117 23.6107 16.0886 23.6107 16.9217C23.6107 17.7549 22.9353 18.4318 22.1007 18.4318C21.266 18.4318 20.5906 17.7549 20.5906 16.9217C20.5906 16.0886 21.266 15.4117 22.1007 15.4117Z" fill="#50A2C8"/>
</svg>
