<svg width="36" height="36" viewBox="0 0 36 36" fill="none" xmlns="http://www.w3.org/2000/svg">
<path d="M18 0C8.05781 0 0 8.05781 0 18C0 27.9422 8.05781 36 18 36C27.9422 36 36 27.9422 36 18C36 8.05781 27.9422 0 18 0ZM26.2195 14.0344C26.2266 14.2102 26.2336 14.393 26.2336 14.5687C26.2336 20.025 22.0781 26.325 14.4773 26.325C12.143 26.325 9.97031 25.643 8.14219 24.4688C8.46562 24.5039 8.79609 24.525 9.12656 24.525C11.0602 24.525 12.8461 23.8641 14.2594 22.7531C12.4523 22.718 10.9266 21.5227 10.3992 19.8844C10.6523 19.9336 10.9125 19.9617 11.1727 19.9617C11.5523 19.9617 11.918 19.9125 12.2625 19.8141C10.3711 19.4344 8.95078 17.768 8.95078 15.7641C8.95078 15.743 8.95078 15.7289 8.95078 15.7078C9.50625 16.0172 10.1461 16.207 10.8211 16.2211C9.71016 15.4828 8.98594 14.2172 8.98594 12.7828C8.98594 12.0234 9.18984 11.3133 9.54844 10.7086C11.5875 13.2117 14.632 14.85 18.0633 15.0258C17.993 14.7234 17.9578 14.407 17.9578 14.0836C17.9578 11.8055 19.807 9.94922 22.0922 9.94922C23.2805 9.94922 24.3563 10.4484 25.1086 11.257C26.0508 11.0742 26.9367 10.7297 27.7312 10.2516C27.4219 11.2148 26.768 12.0234 25.9172 12.5367C26.7539 12.4383 27.5484 12.2133 28.2867 11.8828C27.7242 12.7266 27.0281 13.4508 26.2195 14.0344Z" fill="white"/>
</svg>
